<?xml version="1.0" encoding="UTF-8"?>
<!DOCTYPE svg PUBLIC "-//W3C//DTD SVG 1.1//EN" "http://www.w3.org/Graphics/SVG/1.1/DTD/svg11.dtd">
<!-- Creator: CorelDRAW -->
<svg xmlns="http://www.w3.org/2000/svg" xml:space="preserve" width="487px" height="570px" version="1.1" style="shape-rendering:geometricPrecision; text-rendering:geometricPrecision; image-rendering:optimizeQuality; fill-rule:evenodd; clip-rule:evenodd"
viewBox="0 0 157.97 184.9"
 xmlns:xlink="http://www.w3.org/1999/xlink"
 xmlns:xodm="http://www.corel.com/coreldraw/odm/2003">
 <defs>
  <style type="text/css">
   <![CDATA[
    .fil1 {fill:none;fill-rule:nonzero}
    .fil0 {fill:black;fill-rule:nonzero}
   ]]>
  </style>
 </defs>
 <g id="Camada_x0020_1">
  <metadata id="CorelCorpID_0Corel-Layer"/>
  <g id="_105553230030592">
   <path class="fil0" d="M122.61 9.78c0,7.56 0,14.82 0.01,22.08 0,2.54 1.41,3.55 3.83,3.53 4.01,-0.04 8.01,-0.01 12.02,-0.01 3.19,0 6.38,0 9.69,0 -8.6,-8.62 -16.9,-16.94 -25.55,-25.6zm29.99 30.86c-3.03,0 -5.75,0 -8.47,0 -6.02,0 -12.05,0.06 -18.07,-0.02 -5.47,-0.07 -8.64,-3.23 -8.7,-8.73 -0.08,-7.61 -0.02,-15.22 -0.03,-22.83 0,-1.13 0,-2.26 0,-3.65 -1.57,0 -2.72,0 -3.87,0 -25.04,0 -50.09,-0.01 -75.13,0 -13.45,0 -21.6,8.07 -21.58,21.43 0.02,24.3 0.12,48.61 0.13,72.91 0.01,14.16 -0.09,28.32 -0.15,42.48 0,0.42 0.17,0.98 -0.04,1.24 -0.82,1.02 -1.76,1.93 -2.66,2.89 -0.84,-0.9 -1.91,-1.68 -2.45,-2.73 -0.4,-0.75 -0.11,-1.86 -0.11,-2.81 0,-37.94 0,-75.88 0.01,-113.82 0,-16.5 10.44,-26.94 26.93,-26.95 25.99,-0.01 51.99,0.03 77.99,-0.05 3.18,-0.01 5.6,0.9 7.86,3.2 10.23,10.39 20.56,20.69 30.94,30.94 1.95,1.93 2.79,4.04 2.77,6.75 -0.06,12.16 -0.03,24.31 -0.03,36.47 0,23.42 0.05,46.85 -0.01,70.28 -0.05,14.36 -9.04,25.52 -22.6,28.15 -2.16,0.42 -4.41,0.47 -6.62,0.47 -29.38,0.03 -58.76,0.02 -88.14,0.02 -0.95,0 -2.07,0.23 -2.8,-0.18 -0.86,-0.49 -1.91,-1.57 -1.92,-2.4 -0.01,-0.84 0.99,-2.01 1.85,-2.46 0.84,-0.44 2.06,-0.19 3.11,-0.19 28.85,-0.01 57.7,0 86.55,-0.01 15.24,0 25.24,-9.97 25.23,-25.19 -0.02,-19.43 -0.13,-38.86 -0.13,-58.3 -0.01,-14.37 0.09,-28.73 0.14,-43.1 0,-1.14 0,-2.28 0,-3.81z"/>
   <path class="fil0" d="M40.37 141.02c1.21,1.25 2.27,2.35 3.18,3.3 2.04,-1.86 3.86,-3.51 5.69,-5.18 -1.19,-1.3 -2.24,-2.43 -3.21,-3.47 -1.92,1.81 -3.65,3.44 -5.66,5.35zm-7.32 0.89c-8.76,8.64 -17.7,17.27 -26.38,26.16 -2.61,2.66 -1.63,6.07 1.9,9.34 2.87,2.66 6.07,2.9 8.77,0.45 2.19,-1.98 4.19,-4.16 6.29,-6.24 6.6,-6.52 13.2,-13.04 19.54,-19.3 -3.57,-3.67 -6.84,-7.04 -10.12,-10.41zm98.81 -42.27c-0.82,-27.27 -22.1,-47.41 -49.24,-46.61 -22.33,0.66 -47.1,19.49 -44.79,51.79 1.59,22.09 21.03,43.14 48.05,42.51 25.91,-0.59 46.73,-22.36 45.98,-47.69zm-78.64 42.62c-1.55,1.74 -3.11,3.33 -4.45,5.08 -0.46,0.61 -0.67,1.69 -0.5,2.45 0.61,2.63 -0.04,4.76 -1.93,6.64 -8.31,8.28 -16.54,16.65 -24.91,24.87 -5.16,5.07 -11.71,4.73 -17.11,-0.64 -5.39,-5.36 -5.82,-12.02 -0.82,-17.12 8.29,-8.45 16.65,-16.84 25.16,-25.06 1.27,-1.23 3.71,-2.25 5.31,-1.92 2.3,0.48 3.52,-0.13 4.87,-1.66 1.05,-1.17 2.32,-2.16 3.66,-3.39 -9.74,-13.77 -12.66,-28.81 -8.58,-44.77 3.34,-13.03 11.01,-23.41 22.44,-30.76 22,-14.15 50.9,-9.92 68.14,9.94 16.92,19.48 16.86,48.99 -0.07,68.57 -16.86,19.5 -46.91,24.89 -71.21,7.77z"/>
   <path class="fil1" d="M127.09 99.74c0.09,-21.97 -18.12,-42.09 -42.62,-42.02 -21.77,0.06 -43.51,17.51 -42.11,45.03 1.24,24.39 21.75,40.2 43.2,39.83 23.05,-0.4 41.72,-19.5 41.53,-42.84zm4.77 -0.1c0.75,25.33 -20.07,47.1 -45.98,47.69 -27.02,0.63 -46.46,-20.42 -48.05,-42.51 -2.31,-32.3 22.46,-51.13 44.79,-51.79 27.14,-0.8 48.42,19.34 49.24,46.61z"/>
   <path class="fil0" d="M47.61 100.34c0.24,20.63 16.86,37.21 37.26,36.96 19.93,-0.23 36.72,-15.6 36.9,-36.97 0.17,-20.94 -16.68,-37.43 -37.53,-37.24 -20.34,0.18 -36.86,16.98 -36.63,37.25zm79.48 -0.6c0.19,23.34 -18.48,42.44 -41.53,42.84 -21.45,0.37 -41.96,-15.44 -43.2,-39.83 -1.4,-27.52 20.34,-44.97 42.11,-45.03 24.5,-0.07 42.71,20.05 42.62,42.02z"/>
  </g>
 </g>
</svg>
