<?xml version="1.0" encoding="UTF-8"?>
<!DOCTYPE svg PUBLIC "-//W3C//DTD SVG 1.1//EN" "http://www.w3.org/Graphics/SVG/1.1/DTD/svg11.dtd">
<!-- Creator: CorelDRAW -->
<svg xmlns="http://www.w3.org/2000/svg" xml:space="preserve" width="597px" height="447px" version="1.1" style="shape-rendering:geometricPrecision; text-rendering:geometricPrecision; image-rendering:optimizeQuality; fill-rule:evenodd; clip-rule:evenodd"
viewBox="0 0 237.94 178.09"
 xmlns:xlink="http://www.w3.org/1999/xlink"
 xmlns:xodm="http://www.corel.com/coreldraw/odm/2003">
 <defs>
  <style type="text/css">
   <![CDATA[
    .fil0 {fill:black;fill-rule:nonzero}
   ]]>
  </style>
 </defs>
 <g id="Camada_x0020_1">
  <metadata id="CorelCorpID_0Corel-Layer"/>
  <g id="_105553220655520">
   <path class="fil0" d="M0 26.45c3,-4.23 5.36,-4.54 9.54,-1.14 24.39,19.79 48.77,39.6 73.15,59.4 7.15,5.8 15.78,5.86 22.95,0.04 24.45,-19.83 48.87,-39.7 73.34,-59.52 1.1,-0.89 2.44,-1.75 3.8,-2.02 2.84,-0.57 5.4,1.4 5.44,4.28 0.12,9.12 0.12,18.24 -0.01,27.36 -0.04,2.83 -2.15,4.23 -5.43,4.58 -5.06,0.56 -10.26,0.73 -15.13,2.07 -24.3,6.69 -39.89,22.36 -46.66,46.59 -2.17,7.74 -2.48,15.68 -1.47,23.68 0.59,4.61 -1.41,6.81 -6.11,6.81 -30.82,0.02 -61.64,0.04 -92.46,-0.01 -11.01,-0.02 -18.47,-6.23 -20.64,-16.87 -0.05,-0.22 -0.21,-0.41 -0.31,-0.62l0 -94.63z"/>
   <path class="fil0" d="M168.6 123.62c-0.04,8.18 6.71,14.97 14.84,14.93 8.07,-0.04 14.72,-6.66 14.83,-14.75 0.11,-8.09 -6.69,-14.88 -14.89,-14.87 -8.14,0.01 -14.73,6.56 -14.78,14.69zm69.34 7.2c-1.03,5.03 -3.01,9.51 -7.08,12.9 -8.39,6.98 -20.59,6.05 -27.72,-2.17 -0.39,-0.46 -0.79,-0.91 -1.26,-1.44 -4.24,4.47 -9.28,7.21 -15.34,8.15 -9.26,1.43 -19.48,-3.57 -24.54,-12.16 -4.93,-8.37 -4.2,-19.43 1.38,-26.88 8.5,-11.34 24.04,-13.56 35.18,-4.91 0.51,0.4 1.56,0.6 2.15,0.36 4.07,-1.67 7.4,0.35 7.46,4.78 0.09,6.03 0,12.06 0.05,18.08 0.01,1.3 0.12,2.64 0.46,3.89 1.23,4.43 5.52,7.43 9.96,7.08 4.84,-0.37 8.67,-3.62 9.15,-8.34 1.92,-18.79 -5.98,-36.46 -23.54,-45.72 -26.22,-13.83 -57.82,0.89 -64.39,29.76 -5.98,26.28 13.55,52.22 40.52,53.85 8.13,0.5 15.84,-0.96 23.11,-4.67 0.76,-0.39 1.53,-0.76 2.32,-1.08 2.91,-1.19 5.53,-0.37 6.75,2.11 1.21,2.45 0.4,5.32 -2.38,6.64 -4.11,1.94 -8.27,3.97 -12.63,5.14 -30.51,8.22 -61.46,-11.1 -67.61,-42 -6.03,-30.25 14.78,-59.72 45.32,-64.2 28.85,-4.23 55.63,14.41 61.59,42.88 0.41,1.95 0.73,3.93 1.09,5.89l0 12.06z"/>
   <path class="fil0" d="M94.33 0.01c24.32,0 48.63,0.02 72.95,-0.01 4.03,0 7.84,0.73 11.32,2.83 4.25,2.55 4.55,6.19 0.72,9.3 -15.79,12.84 -31.58,25.66 -47.38,38.49 -10.51,8.53 -21.02,17.07 -31.52,25.61 -4.77,3.88 -7.6,3.93 -12.33,0.09 -26.13,-21.2 -52.25,-42.41 -78.35,-63.66 -1.17,-0.95 -2.32,-2.13 -2.97,-3.45 -1.01,-2.05 -0.03,-4.42 2.06,-5.81 3.65,-2.44 7.71,-3.4 12.09,-3.4 24.47,0.03 48.94,0.01 73.41,0.01z"/>
  </g>
 </g>
</svg>
