<?xml version="1.0" encoding="UTF-8"?>
<!DOCTYPE svg PUBLIC "-//W3C//DTD SVG 1.1//EN" "http://www.w3.org/Graphics/SVG/1.1/DTD/svg11.dtd">
<!-- Creator: CorelDRAW -->
<svg xmlns="http://www.w3.org/2000/svg" xml:space="preserve" width="388px" height="485px" version="1.1" style="shape-rendering:geometricPrecision; text-rendering:geometricPrecision; image-rendering:optimizeQuality; fill-rule:evenodd; clip-rule:evenodd"
viewBox="0 0 272.72 341.36"
 xmlns:xlink="http://www.w3.org/1999/xlink"
 xmlns:xodm="http://www.corel.com/coreldraw/odm/2003">
 <defs>
  <style type="text/css">
   <![CDATA[
    .fil0 {fill:black;fill-rule:nonzero}
   ]]>
  </style>
 </defs>
 <g id="Camada_x0020_1">
  <metadata id="CorelCorpID_0Corel-Layer"/>
  <g id="_105553221057408">
   <path class="fil0" d="M233.33 178.13c-21.75,0 -39.38,-17.63 -39.38,-39.38 0,-21.76 17.63,-39.39 39.38,-39.39 21.76,0 39.39,17.63 39.39,39.39 0,21.75 -17.63,39.38 -39.39,39.38z"/>
   <path class="fil0" d="M128.48 333.48l0 -325.6c0,-4.35 3.53,-7.88 7.88,-7.88 4.35,0 7.88,3.53 7.88,7.88l0 325.6c0,4.35 -3.53,7.88 -7.88,7.88 -4.35,0 -7.88,-3.53 -7.88,-7.88z"/>
   <path class="fil0" d="M31.51 333.48l0 -325.6c0,-4.35 3.53,-7.88 7.88,-7.88 4.35,0 7.87,3.53 7.87,7.88l0 325.6c0,4.35 -3.52,7.88 -7.87,7.88 -4.35,0 -7.88,-3.53 -7.88,-7.88z"/>
   <path class="fil0" d="M225.46 333.48l0 -325.6c0,-4.35 3.52,-7.88 7.87,-7.88 4.35,0 7.88,3.53 7.88,7.88l0 325.6c0,4.35 -3.53,7.88 -7.88,7.88 -4.35,0 -7.87,-3.53 -7.87,-7.88z"/>
   <path class="fil0" d="M136.36 285.1c-21.75,0 -39.39,-17.64 -39.39,-39.39 0,-21.75 17.64,-39.39 39.39,-39.39 21.75,0 39.39,17.64 39.39,39.39 0,21.75 -17.64,39.39 -39.39,39.39z"/>
   <path class="fil0" d="M39.39 112.97c-21.76,0 -39.39,-17.63 -39.39,-39.38 0,-21.76 17.63,-39.39 39.39,-39.39 21.75,0 39.38,17.63 39.38,39.39 0,21.75 -17.63,39.38 -39.38,39.38z"/>
  </g>
 </g>
</svg>
