<?xml version="1.0" encoding="UTF-8"?>
<!DOCTYPE svg PUBLIC "-//W3C//DTD SVG 1.1//EN" "http://www.w3.org/Graphics/SVG/1.1/DTD/svg11.dtd">
<!-- Creator: CorelDRAW -->
<svg xmlns="http://www.w3.org/2000/svg" xml:space="preserve" width="544px" height="544px" version="1.1" style="shape-rendering:geometricPrecision; text-rendering:geometricPrecision; image-rendering:optimizeQuality; fill-rule:evenodd; clip-rule:evenodd"
viewBox="0 0 186.29 186.29"
 xmlns:xlink="http://www.w3.org/1999/xlink"
 xmlns:xodm="http://www.corel.com/coreldraw/odm/2003">
 <defs>
  <style type="text/css">
   <![CDATA[
    .fil0 {fill:#DA0000;fill-rule:nonzero}
    .fil1 {fill:white;fill-rule:nonzero}
   ]]>
  </style>
 </defs>
 <g id="Camada_x0020_1">
  <metadata id="CorelCorpID_0Corel-Layer"/>
  <path class="fil0" d="M186.29 93.14c0,51.45 -41.7,93.15 -93.15,93.15 -51.44,0 -93.14,-41.7 -93.14,-93.15 0,-51.44 41.7,-93.14 93.14,-93.14 51.45,0 93.15,41.7 93.15,93.14z"/>
  <path class="fil1" d="M80.72 111.77l0 -37.25 32.27 18.62 -32.27 18.63zm71.92 -48.52c-1.42,-5.34 -5.63,-9.55 -10.98,-10.98 -9.68,-2.59 -48.52,-2.59 -48.52,-2.59 0,0 -38.83,0 -48.52,2.59 -5.34,1.43 -9.55,5.64 -10.98,10.98 -2.59,9.69 -2.59,29.89 -2.59,29.89 0,0 0,20.21 2.59,29.9 1.43,5.34 5.64,9.55 10.98,10.98 9.69,2.59 48.52,2.59 48.52,2.59 0,0 38.84,0 48.52,-2.59 5.35,-1.43 9.56,-5.64 10.98,-10.98 2.6,-9.69 2.6,-29.9 2.6,-29.9 0,0 0,-20.2 -2.6,-29.89z"/>
 </g>
</svg>
