<?xml version="1.0" encoding="UTF-8"?>
<!DOCTYPE svg PUBLIC "-//W3C//DTD SVG 1.1//EN" "http://www.w3.org/Graphics/SVG/1.1/DTD/svg11.dtd">
<!-- Creator: CorelDRAW -->
<svg xmlns="http://www.w3.org/2000/svg" xml:space="preserve" width="558px" height="558px" version="1.1" style="shape-rendering:geometricPrecision; text-rendering:geometricPrecision; image-rendering:optimizeQuality; fill-rule:evenodd; clip-rule:evenodd"
viewBox="0 0 192.42 192.42"
 xmlns:xlink="http://www.w3.org/1999/xlink"
 xmlns:xodm="http://www.corel.com/coreldraw/odm/2003">
 <defs>
  <style type="text/css">
   <![CDATA[
    .fil0 {fill:#4467AD;fill-rule:nonzero}
    .fil1 {fill:#FEFEFE;fill-rule:nonzero}
   ]]>
  </style>
 </defs>
 <g id="Camada_x0020_1">
  <metadata id="CorelCorpID_0Corel-Layer"/>
  <path class="fil0" d="M192.42 96.21c0,53.14 -43.07,96.21 -96.21,96.21 -53.13,0 -96.21,-43.07 -96.21,-96.21 0,-53.13 43.08,-96.21 96.21,-96.21 53.14,0 96.21,43.08 96.21,96.21z"/>
  <path class="fil1" d="M103.66 83.08c1.58,-1.77 2.88,-3.57 4.5,-5.1 4.99,-4.71 10.89,-7.08 17.78,-7.02 3.79,0.03 7.53,0.31 11.18,1.36 8.35,2.42 13.21,8.16 15.52,16.32 1.74,6.12 2.06,12.4 2.07,18.7 0.02,13.29 -0.04,26.58 -0.01,39.87 0,1.25 -0.35,1.57 -1.57,1.56 -6.85,-0.05 -13.7,-0.06 -20.54,0.01 -1.21,0.01 -1.47,-0.37 -1.46,-1.51 0.03,-12.64 0.04,-25.29 0,-37.93 -0.01,-3.17 -0.21,-6.34 -1.1,-9.42 -1.64,-5.68 -5.7,-8.57 -11.65,-8.26 -8.12,0.43 -12.34,4.45 -13.37,12.71 -0.25,1.97 -0.37,3.94 -0.37,5.93 0.01,12.3 -0.01,24.6 0.04,36.9 0,1.22 -0.3,1.59 -1.56,1.58 -6.89,-0.07 -13.79,-0.06 -20.69,-0.01 -1.1,0.01 -1.42,-0.29 -1.42,-1.41 0.03,-24.35 0.03,-48.7 0,-73.05 0,-1.2 0.39,-1.48 1.53,-1.47 6.55,0.04 13.1,0.05 19.65,-0.01 1.2,-0.01 1.51,0.38 1.49,1.52 -0.07,2.91 -0.02,5.82 -0.02,8.73z"/>
  <path class="fil1" d="M66.14 110.91c0,12.05 -0.02,24.09 0.03,36.14 0,1.34 -0.33,1.74 -1.71,1.73 -6.85,-0.07 -13.69,-0.06 -20.54,-0.01 -1.09,0.01 -1.42,-0.27 -1.42,-1.4 0.03,-24.39 0.03,-48.78 0,-73.17 0,-1.01 0.25,-1.37 1.32,-1.36 6.94,0.04 13.89,0.06 20.83,-0.01 1.33,-0.02 1.51,0.5 1.51,1.65 -0.03,12.14 -0.02,24.29 -0.02,36.43z"/>
  <path class="fil1" d="M68.03 48.67c0.01,7.56 -6.13,13.72 -13.68,13.72 -7.45,0.01 -13.64,-6.16 -13.66,-13.61 -0.03,-7.52 6.16,-13.72 13.69,-13.72 7.48,0.01 13.64,6.15 13.65,13.61z"/>
 </g>
</svg>
