<?xml version="1.0" encoding="UTF-8"?>
<!DOCTYPE svg PUBLIC "-//W3C//DTD SVG 1.1//EN" "http://www.w3.org/Graphics/SVG/1.1/DTD/svg11.dtd">
<!-- Creator: CorelDRAW -->
<svg xmlns="http://www.w3.org/2000/svg" xml:space="preserve" width="573px" height="507px" version="1.1" style="shape-rendering:geometricPrecision; text-rendering:geometricPrecision; image-rendering:optimizeQuality; fill-rule:evenodd; clip-rule:evenodd"
viewBox="0 0 195.62 172.95"
 xmlns:xlink="http://www.w3.org/1999/xlink"
 xmlns:xodm="http://www.corel.com/coreldraw/odm/2003">
 <defs>
  <style type="text/css">
   <![CDATA[
    .fil0 {fill-rule:nonzero}
   ]]>
  </style>
 </defs>
 <g id="Camada_x0020_1">
  <metadata id="CorelCorpID_0Corel-Layer"/>
  <path class="fil0" d="M1.84 115.48l22.11 -34.42c3.76,-5.85 11.55,-7.54 17.4,-3.78l34.42 22.12c3.44,2.21 5.32,5.94 5.32,9.75 0,2.14 -0.6,4.31 -1.84,6.24 -3.46,5.38 -10.62,6.94 -16,3.49l-4.55 -2.93c-2.3,-1.47 -5.01,1.18 -3.58,3.52 11.19,18.27 31.39,30.45 54.38,30.32 34.96,-0.19 63.01,-28.45 62.96,-63.41 -0.05,-34.76 -28.25,-63.03 -62.96,-63.23 -23.09,0.13 -43.29,12.68 -54.25,31.29 -3.16,5.37 -9.98,7.29 -15.47,4.36 -5.79,-3.1 -7.9,-10.4 -4.57,-16.06 3.69,-6.28 8.21,-12.13 13.5,-17.41 16.16,-16.17 37.6,-25.15 60.43,-25.33 0.12,0 0.24,0 0.36,0 22.96,0.09 44.54,9.07 60.79,25.33 16.33,16.33 25.33,38.04 25.33,61.14 0,23.1 -9,44.82 -25.33,61.15 -16.33,16.34 -38.05,25.33 -61.15,25.33 -23.1,0 -44.82,-8.99 -61.15,-25.33 -7.61,-7.61 -13.62,-16.38 -17.88,-25.93 -0.83,-1.87 -3.4,-2.07 -4.51,-0.35l-4.28 6.66c-2.21,3.44 -5.94,5.32 -9.75,5.32 -2.15,0 -4.31,-0.6 -6.25,-1.84 -5.38,-3.46 -6.94,-10.62 -3.48,-16z"/>
 </g>
</svg>
