<?xml version="1.0" encoding="UTF-8"?>
<!DOCTYPE svg PUBLIC "-//W3C//DTD SVG 1.1//EN" "http://www.w3.org/Graphics/SVG/1.1/DTD/svg11.dtd">
<!-- Creator: CorelDRAW -->
<svg xmlns="http://www.w3.org/2000/svg" xml:space="preserve" width="353px" height="486px" version="1.1" style="shape-rendering:geometricPrecision; text-rendering:geometricPrecision; image-rendering:optimizeQuality; fill-rule:evenodd; clip-rule:evenodd"
viewBox="0 0 215.45 296.41"
 xmlns:xlink="http://www.w3.org/1999/xlink"
 xmlns:xodm="http://www.corel.com/coreldraw/odm/2003">
 <defs>
  <style type="text/css">
   <![CDATA[
    .fil0 {fill:black;fill-rule:nonzero}
   ]]>
  </style>
 </defs>
 <g id="Camada_x0020_1">
  <metadata id="CorelCorpID_0Corel-Layer"/>
  <path class="fil0" d="M172.89 236.42c2.62,0 4.76,-2.13 4.76,-4.76 0,-2.63 -2.14,-4.76 -4.76,-4.76l-27.07 0c-2.63,0 -4.76,2.13 -4.76,4.76 0,2.63 2.13,4.76 4.76,4.76l27.07 0z"/>
  <path class="fil0" d="M128.36 226.9l-88.11 0c-2.63,0 -4.76,2.13 -4.76,4.76 0,2.63 2.13,4.76 4.76,4.76l88.11 0c2.63,0 4.76,-2.13 4.76,-4.76 0,-2.63 -2.13,-4.76 -4.76,-4.76z"/>
  <path class="fil0" d="M40.25 250.14c-2.63,0 -4.76,2.14 -4.76,4.77 0,2.63 2.13,4.76 4.76,4.76l27.07 0c2.63,0 4.76,-2.13 4.76,-4.76 0,-2.63 -2.13,-4.77 -4.76,-4.77l-27.07 0z"/>
  <path class="fil0" d="M80.02 254.91c0,2.63 2.13,4.76 4.76,4.76l88.11 0c2.62,0 4.76,-2.13 4.76,-4.76 0,-2.63 -2.14,-4.77 -4.76,-4.77l-88.11 0c-2.63,0 -4.76,2.14 -4.76,4.77z"/>
  <path class="fil0" d="M19.39 23.81c2.63,0 4.76,-2.13 4.76,-4.76l0 -9.53 167.14 0 0 9.53c0,2.63 2.14,4.76 4.77,4.76 2.63,0 4.76,-2.13 4.76,-4.76l0 -14.29c0,-2.63 -2.13,-4.76 -4.76,-4.76l-176.67 0c-2.63,0 -4.76,2.13 -4.76,4.76l0 14.29c0,2.63 2.13,4.76 4.76,4.76z"/>
  <path class="fil0" d="M152.19 176.11l0 -81.44c1.6,1.73 3.09,3.56 4.48,5.47 1.25,1.72 2.42,3.51 3.48,5.37 5.07,8.8 7.97,19.01 7.97,29.88 0,10.87 -2.9,21.07 -7.97,29.88 -2.24,3.91 -4.92,7.54 -7.96,10.84zm-10.06 -87.22l0 25.74 -20.97 0c-2.78,0 -5.03,2.25 -5.03,5.03l0 15.83 -15.93 0 0 -24.19c0,-2.78 -2.25,-5.03 -5.03,-5.03l-26 0c-2.78,0 -5.03,2.25 -5.03,5.03l0 36.4 -14.95 0c-0.01,-0.06 -0.02,-0.13 -0.03,-0.19 -0.81,-3.91 -1.23,-7.97 -1.23,-12.12 0,-33.14 26.96,-60.1 60.09,-60.1 12.95,0 24.95,4.12 34.77,11.11 -0.42,0.73 -0.66,1.58 -0.66,2.49zm-0.01 95.96c-1.51,1.05 -3.09,2.03 -4.7,2.94 -3.54,2 -7.3,3.64 -11.22,4.89l0 -67.99 15.92 0 0 60.16zm-25.99 10.09c-0.48,0.07 -0.96,0.12 -1.44,0.18 -2.19,0.24 -4.41,0.37 -6.67,0.37 -2.45,0 -4.88,-0.15 -7.26,-0.44 -0.19,-0.02 -0.38,-0.05 -0.56,-0.07l0 -49.43 15.93 0 0 49.39zm-26 -2.17c-4.26,-1.33 -8.31,-3.13 -12.11,-5.32 -1.3,-0.76 -2.58,-1.56 -3.82,-2.41l0 -68.7 15.93 0 0 76.43zm-25.99 -16.37c-3.44,-3.67 -6.41,-7.76 -8.85,-12.2 -1.14,-2.08 -2.15,-4.23 -3.04,-6.44l11.89 0 0 18.64zm146.54 16.59c2.63,0 4.77,-2.13 4.77,-4.76l0 -151.49c0,-2.63 -2.14,-4.76 -4.77,-4.76l-205.92 0c-2.63,0 -4.76,2.13 -4.76,4.76l0 254.9c0,2.63 2.13,4.77 4.76,4.77l205.92 0c2.63,0 4.77,-2.14 4.77,-4.77l0 -58.05c0,-1.27 -0.51,-2.48 -1.4,-3.37l-51.54 -51.54c2.41,-3.02 4.56,-6.24 6.44,-9.63 5.54,-9.98 8.7,-21.46 8.7,-33.66 0,-12.2 -3.16,-23.69 -8.7,-33.67 -0.27,-0.49 -0.55,-0.97 -0.83,-1.45 -1.29,-2.2 -2.69,-4.32 -4.2,-6.35 -0.65,-0.88 -1.33,-1.74 -2.02,-2.58 -2.18,-2.67 -4.56,-5.17 -7.1,-7.48 -12.37,-11.24 -28.79,-18.09 -46.78,-18.09 -38.39,0 -69.62,31.23 -69.62,69.62 0,11.75 2.93,22.83 8.09,32.56 2.46,4.62 5.41,8.92 8.8,12.85 4.07,4.72 8.75,8.88 13.93,12.37 2.8,1.89 5.74,3.57 8.8,5.04 4.41,2.12 9.08,3.78 13.94,4.93 2.87,0.68 5.8,1.18 8.8,1.5 2.38,0.24 4.81,0.37 7.26,0.37 2.25,0 4.48,-0.11 6.67,-0.31 2.99,-0.29 5.93,-0.76 8.8,-1.42 4.85,-1.1 9.52,-2.72 13.93,-4.78 3.06,-1.43 6,-3.08 8.8,-4.93 3.52,-2.31 6.82,-4.95 9.86,-7.85l4.07 4.07 45.77 45.77 0 51.32 -196.4 0 0 -245.38 196.4 0 0 146.73c0,2.63 2.13,4.76 4.76,4.76z"/>
 </g>
</svg>
