<?xml version="1.0" encoding="UTF-8"?>
<!DOCTYPE svg PUBLIC "-//W3C//DTD SVG 1.1//EN" "http://www.w3.org/Graphics/SVG/1.1/DTD/svg11.dtd">
<!-- Creator: CorelDRAW -->
<svg xmlns="http://www.w3.org/2000/svg" xml:space="preserve" width="550px" height="550px" version="1.1" style="shape-rendering:geometricPrecision; text-rendering:geometricPrecision; image-rendering:optimizeQuality; fill-rule:evenodd; clip-rule:evenodd"
viewBox="0 0 766.24 766.24"
 xmlns:xlink="http://www.w3.org/1999/xlink"
 xmlns:xodm="http://www.corel.com/coreldraw/odm/2003">
 <defs>
  <style type="text/css">
   <![CDATA[
    .fil0 {fill:#5A99EC}
    .fil1 {fill:white;fill-rule:nonzero}
   ]]>
  </style>
 </defs>
 <g id="Camada_x0020_1">
  <metadata id="CorelCorpID_0Corel-Layer"/>
  <path class="fil0" d="M766.24 383.12c0,211.59 -171.53,383.12 -383.12,383.12 -211.59,0 -383.12,-171.53 -383.12,-383.12 0,-211.59 171.53,-383.12 383.12,-383.12 211.59,0 383.12,171.53 383.12,383.12z"/>
  <path class="fil1" d="M305.71 603.77c187.12,0 289.45,-155.02 289.45,-289.45 0,-4.41 -0.09,-8.79 -0.29,-13.15 19.86,-14.36 37.13,-32.28 50.75,-52.67 -18.23,8.09 -37.85,13.55 -58.42,16.01 21,-12.59 37.13,-32.53 44.73,-56.28 -19.66,11.65 -41.42,20.13 -64.6,24.7 -18.56,-19.78 -45,-32.15 -74.26,-32.15 -56.18,0 -101.74,45.56 -101.74,101.73 0,7.98 0.89,15.75 2.64,23.19 -84.55,-4.25 -159.52,-44.73 -209.69,-106.28 -8.75,15.03 -13.78,32.5 -13.78,51.13 0,35.29 17.96,66.45 45.27,84.68 -16.69,-0.52 -32.37,-5.1 -46.08,-12.73 -0.02,0.42 -0.02,0.85 -0.02,1.3 0,49.27 35.07,90.4 81.62,99.74 -8.55,2.32 -17.54,3.57 -26.82,3.57 -6.55,0 -12.93,-0.65 -19.12,-1.83 12.95,40.41 50.5,69.83 95.03,70.66 -34.82,27.29 -78.68,43.54 -126.35,43.54 -8.21,0 -16.3,-0.46 -24.27,-1.41 45.03,28.86 98.49,45.7 155.95,45.7z"/>
 </g>
</svg>
