<?xml version="1.0" encoding="UTF-8"?>
<!DOCTYPE svg PUBLIC "-//W3C//DTD SVG 1.1//EN" "http://www.w3.org/Graphics/SVG/1.1/DTD/svg11.dtd">
<!-- Creator: CorelDRAW -->
<svg xmlns="http://www.w3.org/2000/svg" xml:space="preserve" width="566px" height="566px" version="1.1" style="shape-rendering:geometricPrecision; text-rendering:geometricPrecision; image-rendering:optimizeQuality; fill-rule:evenodd; clip-rule:evenodd"
viewBox="0 0 208.32 208.32"
 xmlns:xlink="http://www.w3.org/1999/xlink"
 xmlns:xodm="http://www.corel.com/coreldraw/odm/2003">
 <defs>
  <style type="text/css">
   <![CDATA[
    .fil0 {fill:black;fill-rule:nonzero}
   ]]>
  </style>
 </defs>
 <g id="Camada_x0020_1">
  <metadata id="CorelCorpID_0Corel-Layer"/>
  <g id="_105553220808992">
   <path class="fil0" d="M105.96 120.26c2.17,-0.24 3.96,-1.09 5.38,-2.55 1.41,-1.46 2.12,-3.27 2.12,-5.42 0,-1.83 -0.5,-3.3 -1.5,-4.42 -1.01,-1.11 -3,-2.1 -6,-2.98l0 15.37zm-3.29 -34.89c-2.17,0.3 -3.88,1.07 -5.12,2.35 -1.26,1.27 -1.88,2.78 -1.88,4.52 0,1.72 0.53,3.16 1.59,4.32 1.07,1.16 2.87,2.08 5.41,2.77l0 -13.96zm0 44.2l0 -5.05c-2.79,-0.32 -5.05,-0.88 -6.8,-1.69 -1.75,-0.81 -3.25,-2.13 -4.52,-3.95 -1.28,-1.81 -2.01,-4.02 -2.22,-6.64l5.61 -0.95c0.44,2.7 1.2,4.69 2.29,5.97 1.57,1.79 3.45,2.79 5.64,3l0 -16.08c-2.29,-0.39 -4.64,-1.19 -7.03,-2.4 -1.78,-0.91 -3.14,-2.15 -4.11,-3.74 -0.96,-1.59 -1.44,-3.39 -1.44,-5.41 0,-3.59 1.41,-6.5 4.22,-8.72 1.87,-1.5 4.66,-2.42 8.36,-2.76l0 -2.41 3.29 0 0 2.41c3.25,0.29 5.81,1.15 7.71,2.59 2.45,1.83 3.91,4.34 4.41,7.54l-5.77 0.79c-0.33,-1.98 -1.02,-3.5 -2.06,-4.56 -1.04,-1.06 -2.48,-1.75 -4.29,-2.09l0 14.56c2.8,0.64 4.67,1.13 5.58,1.49 1.74,0.69 3.15,1.53 4.24,2.52 1.1,0.99 1.94,2.17 2.53,3.54 0.59,1.36 0.88,2.84 0.88,4.43 0,3.49 -1.23,6.41 -3.69,8.75 -2.45,2.33 -5.64,3.59 -9.54,3.76l0 5.1 -3.29 0z"/>
   <path class="fil0" d="M104.16 76.25c-1.94,0 -3.52,-1.58 -3.52,-3.52l0 -69.22c0,-1.94 1.58,-3.51 3.52,-3.51 1.94,0 3.52,1.57 3.52,3.51l0 69.22c0,1.94 -1.58,3.52 -3.52,3.52z"/>
   <path class="fil0" d="M72.73 107.68l-69.22 0c-1.94,0 -3.51,-1.58 -3.51,-3.52 0,-1.94 1.57,-3.52 3.51,-3.52l69.22 0c1.95,0 3.52,1.58 3.52,3.52 0,1.94 -1.57,3.52 -3.52,3.52z"/>
   <path class="fil0" d="M104.16 208.32c-1.94,0 -3.52,-1.58 -3.52,-3.51l0 -69.22c0,-1.95 1.58,-3.52 3.52,-3.52 1.94,0 3.52,1.57 3.52,3.52l0 69.22c0,1.93 -1.58,3.51 -3.52,3.51z"/>
   <path class="fil0" d="M204.81 107.68l-69.22 0c-1.94,0 -3.52,-1.58 -3.52,-3.52 0,-1.94 1.58,-3.52 3.52,-3.52l69.22 0c1.93,0 3.51,1.58 3.51,3.52 0,1.94 -1.58,3.52 -3.51,3.52z"/>
   <path class="fil0" d="M104.16 62.6c-22.92,0 -41.56,18.64 -41.56,41.56 0,22.92 18.64,41.55 41.56,41.55 22.92,0 41.56,-18.63 41.56,-41.55 0,-22.92 -18.64,-41.56 -41.56,-41.56zm0 90.15c-26.79,0 -48.59,-21.8 -48.59,-48.59 0,-26.79 21.8,-48.6 48.59,-48.6 26.79,0 48.59,21.81 48.59,48.6 0,26.79 -21.8,48.59 -48.59,48.59z"/>
   <path class="fil0" d="M104.16 42.95c-33.75,0 -61.21,27.46 -61.21,61.21 0,33.75 27.46,61.21 61.21,61.21 33.75,0 61.21,-27.46 61.21,-61.21 0,-33.75 -27.46,-61.21 -61.21,-61.21zm0 129.45c-37.63,0 -68.24,-30.61 -68.24,-68.24 0,-37.63 30.61,-68.24 68.24,-68.24 37.63,0 68.24,30.61 68.24,68.24 0,37.63 -30.61,68.24 -68.24,68.24z"/>
   <path class="fil0" d="M104.16 22.44c-45.06,0 -81.71,36.66 -81.71,81.72 0,45.06 36.65,81.71 81.71,81.71 45.06,0 81.72,-36.65 81.72,-81.71 0,-45.06 -36.66,-81.72 -81.72,-81.72zm0 170.46c-48.93,0 -88.74,-39.81 -88.74,-88.74 0,-48.93 39.81,-88.74 88.74,-88.74 48.93,0 88.74,39.81 88.74,88.74 0,48.93 -39.81,88.74 -88.74,88.74z"/>
  </g>
 </g>
</svg>
