<?xml version="1.0" encoding="UTF-8"?>
<!DOCTYPE svg PUBLIC "-//W3C//DTD SVG 1.1//EN" "http://www.w3.org/Graphics/SVG/1.1/DTD/svg11.dtd">
<!-- Creator: CorelDRAW -->
<svg xmlns="http://www.w3.org/2000/svg" xml:space="preserve" width="519px" height="519px" version="1.1" style="shape-rendering:geometricPrecision; text-rendering:geometricPrecision; image-rendering:optimizeQuality; fill-rule:evenodd; clip-rule:evenodd"
viewBox="0 0 638.41 638.52"
 xmlns:xlink="http://www.w3.org/1999/xlink"
 xmlns:xodm="http://www.corel.com/coreldraw/odm/2003">
 <defs>
  <style type="text/css">
   <![CDATA[
    .fil0 {fill:black;fill-rule:nonzero}
   ]]>
  </style>
 </defs>
 <g id="Camada_x0020_1">
  <metadata id="CorelCorpID_0Corel-Layer"/>
  <path class="fil0" d="M87.09 513.51c1.51,-1.4 3.04,-2.75 4.48,-4.19 23.96,-23.94 47.82,-47.98 71.94,-71.75 3.68,-3.63 4.02,-5.88 1.02,-10.24 -45.63,-66.29 -45.58,-149.75 0.04,-216.18 2.68,-3.91 2.91,-6.2 -0.71,-9.76 -24.26,-23.92 -48.27,-48.11 -72.37,-72.2 -1.42,-1.42 -2.92,-2.76 -4.41,-4.16 -94.86,113.32 -92.77,278.28 0.01,388.48zm37.95 38.07c123.97,103.35 292.96,84.14 388.18,-0.53 -26.13,-26.15 -52.22,-52.32 -78.5,-78.29 -0.91,-0.91 -4.12,-0.5 -5.65,0.37 -8.26,4.74 -15.97,10.61 -24.54,14.65 -67.32,31.75 -132.18,27.14 -194.16,-14.25 -3.85,-2.57 -5.71,-2.12 -8.74,0.93 -24.26,24.5 -48.69,48.83 -73.06,73.22 -1.16,1.16 -2.2,2.43 -3.53,3.9zm426.41 -38.04c100.9,-120.52 86.88,-288.73 -1.29,-389.36 -1.37,1.99 -2.4,4.14 -3.99,5.74 -21.98,22.09 -44.02,44.11 -66.05,66.14 -9.54,9.54 -9.54,9.54 -1.93,21 0.92,1.38 1.8,2.8 2.61,4.25 39.18,70.38 37.01,139.36 -7.27,206.77 -2.44,3.71 -2.44,5.62 0.74,8.76 24.66,24.39 49.12,48.98 73.66,73.51 1.01,1.01 2.12,1.92 3.52,3.19zm-427.79 -425.38c2.36,1.55 4.57,2.53 6.17,4.12 21.95,21.82 43.81,43.73 65.69,65.61 9.97,9.97 9.97,9.97 21.94,2.13 0.87,-0.57 1.75,-1.11 2.65,-1.62 70.6,-39.87 139.93,-38.01 207.8,6.56 4.16,2.74 6.12,2 9.2,-1.11 23.98,-24.2 48.12,-48.24 72.2,-72.33 1.42,-1.43 2.77,-2.93 4.17,-4.41 -109.58,-93.98 -275.79,-94.06 -389.82,1.05zm195.78 403.88c36.36,-0.34 69.51,-10.59 99.32,-31.51 3.1,-2.18 4.27,-4.05 3.43,-8.1 -3.63,-17.51 12.74,-33.73 30.34,-30.14 3.67,0.75 5.57,-0.13 7.67,-3.08 42.3,-59.32 42.33,-140.17 0.08,-199.69 -2.08,-2.93 -3.81,-3.78 -7.59,-3.03 -18.05,3.53 -34.06,-12.71 -30.38,-30.74 0.78,-3.85 -0.55,-5.57 -3.4,-7.56 -23.56,-16.52 -49.51,-26.81 -78.11,-30.18 -44.57,-5.24 -85.3,4.87 -121.92,30.89 -1.62,1.15 -2.85,4.51 -2.5,6.54 3.14,18.66 -12.41,34.58 -30.93,30.97 -3.59,-0.7 -5.18,0.26 -7.09,2.92 -42.16,58.81 -42.2,140.38 -0.13,199.74 2.05,2.9 3.84,4.01 7.62,3.25 18.06,-3.64 33.95,12.43 30.33,30.61 -0.69,3.45 0.19,5.27 2.93,7.2 30.11,21.22 63.62,31.69 100.33,31.91zm318.97 -191.44l0 37.4c-0.94,8.2 -1.67,16.41 -2.85,24.57 -8.72,59.88 -31.95,113.39 -70.32,160.3 -1.61,1.96 -2.39,5.67 -1.81,8.16 4.59,19.68 -11.44,36.88 -31.14,32.58 -4.65,-1.02 -7.55,-0.2 -11.05,2.66 -43.45,35.55 -92.91,58.09 -148.23,67.59 -11.61,1.99 -23.38,3.13 -35.07,4.66l-37.4 0c-8.22,-0.94 -16.48,-1.68 -24.67,-2.87 -59.92,-8.74 -113.44,-32.04 -160.36,-70.47 -1.8,-1.48 -5.26,-2.15 -7.58,-1.61 -20.68,4.8 -37.66,-12.15 -32.8,-32.75 0.55,-2.33 -0.16,-5.8 -1.65,-7.64 -14.42,-17.81 -27.01,-36.75 -37.54,-57.15 -30.88,-59.77 -41.83,-123.1 -32.96,-189.56 8.01,-60.02 31.64,-113.59 70.26,-160.37 2.33,-2.83 2.97,-5.18 2,-8.93 -5.13,-19.74 12.18,-36.78 32.07,-32.17 2.52,0.58 6.25,-0.03 8.19,-1.61 17.97,-14.57 37.1,-27.27 57.71,-37.83 59.63,-30.57 122.77,-41.45 189.01,-32.56 59.57,7.99 112.78,31.41 159.34,69.57 3.34,2.74 6.08,3.65 10.54,2.55 18.93,-4.65 35.83,12.05 31.33,30.99 -1.11,4.69 -0.16,7.6 2.7,11.09 35.57,43.5 58.13,93 67.62,148.38 1.99,11.6 3.13,23.34 4.66,35.02z"/>
 </g>
</svg>
