<?xml version="1.0" encoding="UTF-8"?>
<!DOCTYPE svg PUBLIC "-//W3C//DTD SVG 1.1//EN" "http://www.w3.org/Graphics/SVG/1.1/DTD/svg11.dtd">
<!-- Creator: CorelDRAW -->
<svg xmlns="http://www.w3.org/2000/svg" xml:space="preserve" width="632px" height="329px" version="1.1" style="shape-rendering:geometricPrecision; text-rendering:geometricPrecision; image-rendering:optimizeQuality; fill-rule:evenodd; clip-rule:evenodd"
viewBox="0 0 1267.49 659"
 xmlns:xlink="http://www.w3.org/1999/xlink"
 xmlns:xodm="http://www.corel.com/coreldraw/odm/2003">
 <defs>
  <style type="text/css">
   <![CDATA[
    .fil0 {fill:black}
   ]]>
  </style>
 </defs>
 <g id="Camada_x0020_1">
  <metadata id="CorelCorpID_0Corel-Layer"/>
  <path class="fil0" d="M329.51 0c70.46,0 135.75,22.13 189.31,59.8l-189.31 189.32 -189.32 -189.32c53.56,-37.67 118.85,-59.8 189.32,-59.8zm608.48 659c70.46,0 135.75,-22.13 189.31,-59.8l-189.31 -189.32 -189.32 189.32c53.56,37.67 118.86,59.8 189.32,59.8zm304.17 -202.61c16.31,-39.06 25.33,-81.92 25.33,-126.89 0,-181.98 -147.52,-329.5 -329.5,-329.5 -207,0 -448.44,346.87 -608.48,506.79l-304.18 -304.18c-16.31,39.06 -25.33,81.92 -25.33,126.89 0,181.98 147.52,329.5 329.51,329.5 206.99,0 448.43,-346.87 608.48,-506.78l304.17 304.17z"/>
 </g>
</svg>
