<?xml version="1.0" encoding="UTF-8"?>
<!DOCTYPE svg PUBLIC "-//W3C//DTD SVG 1.1//EN" "http://www.w3.org/Graphics/SVG/1.1/DTD/svg11.dtd">
<!-- Creator: CorelDRAW -->
<svg xmlns="http://www.w3.org/2000/svg" xml:space="preserve" width="763px" height="418px" version="1.1" style="shape-rendering:geometricPrecision; text-rendering:geometricPrecision; image-rendering:optimizeQuality; fill-rule:evenodd; clip-rule:evenodd"
viewBox="0 0 331.84 181.82"
 xmlns:xlink="http://www.w3.org/1999/xlink"
 xmlns:xodm="http://www.corel.com/coreldraw/odm/2003">
 <defs>
  <style type="text/css">
   <![CDATA[
    .str0 {stroke:#BF9E32;stroke-width:0.39;stroke-miterlimit:22.9256}
    .fil1 {fill:#B69350}
    .fil0 {fill:#001B43;fill-rule:nonzero}
   ]]>
  </style>
 </defs>
 <g id="Camada_x0020_1">
  <metadata id="CorelCorpID_0Corel-Layer"/>
  <path class="fil0" d="M279.27 178.42l12.13 0 0 -35.42 37.13 35.42 3.31 0 0 -60.66 -12.13 0 0 35.43 -37.21 -35.43 -3.23 0 0 60.66z"/>
  <path class="fil0" d="M263.65 117.76l-12.13 0 0 60.66 12.13 0 0 -60.66z"/>
  <path class="fil0" d="M237.51 117.76l-12.13 0 0 34.38c0,7.84 -6.31,14.15 -14.15,14.15 -7.85,0 -14.16,-6.31 -14.16,-14.15l0 -34.38 -12.13 0 0 34.38c0,14.55 11.73,26.28 26.29,26.28 14.48,0 26.28,-11.73 26.28,-26.28l0 -34.38z"/>
  <path class="fil0" d="M132.12 178.42l44.48 0 0 -12.13 -32.35 0 0 -48.53 -12.13 0 0 60.66z"/>
  <path class="fil0" d="M111.56 178.42l13.83 0 -35.02 -64.06 -34.94 64.06 13.83 0 21.11 -38.77 21.19 38.77z"/>
  <path class="fil0" d="M56.13 117.76l13.83 0 -35.02 64.06 -34.94 -64.06 13.83 0 21.11 38.77 21.19 -38.77z"/>
  <path class="fil1 str0" d="M125.26 0.2c9.42,0 18.14,2.95 25.3,7.99l-25.3 25.3 -25.3 -25.3c7.16,-5.04 15.88,-7.99 25.3,-7.99zm81.32 88.07c9.42,0 18.14,-2.96 25.3,-7.99l-25.3 -25.31 -25.3 25.31c7.16,5.03 15.88,7.99 25.3,7.99zm40.65 -27.08c2.18,-5.22 3.39,-10.95 3.39,-16.96 0,-24.32 -19.72,-44.03 -44.04,-44.03 -27.66,0 -59.93,46.35 -81.32,67.73l-40.65 -40.66c-2.18,5.22 -3.39,10.95 -3.39,16.96 0,24.32 19.72,44.04 44.04,44.04 27.66,0 59.93,-46.36 81.32,-67.73l40.65 40.65z"/>
 </g>
</svg>
